PathFileType	4	(X/Y/Z)	C:\Users\WrightLab\Desktop\Jo\P3_27.trc
DataRate	CameraRate	NumFrames	NumMarkers	Units	OrigDataRate	OrigDataStartFrame	OrigNumFrames
100.00	100.00	       69	19	mm	100.00	481	       549
Frame#	Time	Headset_Front			Headset_Back			Headset_Left			Headset_Right			Left_Shoulder			Right_Shoulder			Sternum			C7			Left Elbow			Right Elbow			Left Wrist			Right Wrist			Left ASIS			Right ASIS			S2			Left Knee			Right Knee			Left Ankle			Right Ankle			
		X1	Y1	Z1	X2	Y2	Z2	X3	Y3	Z3	X4	Y4	Z4	X5	Y5	Z5	X6	Y6	Z6	X7	Y7	Z7	X8	Y8	Z8	X9	Y9	Z9	X10	Y10	Z10	X11	Y11	Z11	X12	Y12	Z12	X13	Y13	Z13	X14	Y14	Z14	X15	Y15	Z15	X16	Y16	Z16	X17	Y17	Z17	X18	Y18	Z18	X19	Y19	Z19	

481	4.800																												-440.59161	947.55524	-1388.32788																									-395.25073	81.42797	-1442.48474	
482	4.810																												-446.85236	947.88885	-1399.25745																									-395.15652	82.18923	-1442.26868	
483	4.820																												-454.13074	948.84985	-1404.52490																									-395.74347	82.82963	-1446.16553	
484	4.830																												-461.65173	952.51886	-1410.33777																									-395.42258	85.07909	-1444.53735	
485	4.840																												-468.69351	953.88525	-1417.93945																									-395.07892	86.38995	-1444.26526	
486	4.850																												-476.70584	957.97974	-1419.60559																									-395.17435	88.71861	-1444.75354	
487	4.860																																																							-396.07852	88.51253	-1448.67114	
488	4.870																																																							-395.98306	90.17686	-1448.92236	
489	4.880																																																							-398.76349	92.54513	-1452.37146	
490	4.890																																																							-400.38470	92.49185	-1459.07556	
491	4.900																																																							-402.61780	95.34476	-1459.98877	
492	4.910																																																							-405.13712	95.39711	-1462.74194	
493	4.920																																																							-407.78180	97.04572	-1469.24048	
494	4.930																																																							-410.45047	96.85582	-1471.85425	
495	4.940																																																							-413.24445	98.48134	-1473.61963	
496	4.950																																																							-416.01654	97.44160	-1479.98608	
497	4.960																																																							-420.69321	95.97541	-1490.87830	
498	4.970																																																							-422.48795	99.06467	-1492.11658	
499	4.980																																																							-426.24136	98.58659	-1496.15503	
500	4.990																																																							-428.68777	98.02473	-1502.28894	
501	5.000																																																							-432.05576	96.14755	-1510.57495	
502	5.010																																																							-434.94305	96.01229	-1516.07800	
503	5.020																																																							-437.81607	94.21287	-1522.73987	
504	5.030																																																							-441.20612	92.75034	-1533.59741	
505	5.040																																																							-444.48367	92.15460	-1538.91980	
506	5.050																																																							-447.61063	90.84332	-1547.39172	
507	5.060																																																							-451.76538	90.88614	-1554.01416	
508	5.070																																																							-455.61624	88.82664	-1561.44995	
509	5.080																																																							-458.81699	88.90211	-1567.52014	
510	5.090																																																							-464.79062	85.44115	-1586.16882	
511	5.100																																																							-468.63870	87.60654	-1588.13525	
512	5.110																																																							-473.52832	84.17233	-1602.57178	
513	5.120																																																							-478.66196	85.54566	-1610.19995	
514	5.130																																																							-483.82642	86.58051	-1617.58789	
515	5.140																																																							-488.16556	85.60232	-1627.10779	
516	5.150																																																							-493.40195	85.32887	-1638.76440	
517	5.160																																																							-498.49597	85.10391	-1649.38647	
518	5.170																																																							-504.19495	83.99725	-1662.87146	
519	5.180																																																							-509.99036	85.54560	-1670.30627	
520	5.190																																																										
521	5.200																																																										
522	5.210																																																										
523	5.220																																																										
524	5.230																																																										
525	5.240																																																										
526	5.250																																																										
527	5.260																																																										
528	5.270																																																										
529	5.280																																																										
530	5.290																																																										
531	5.300																																																										
532	5.310																																																										
533	5.320																																																										
534	5.330																																																										
535	5.340																																																										
536	5.350																																																										
537	5.360																																																										
538	5.370																																																										
539	5.380																																																										
540	5.390																																																										
541	5.400																																																										
542	5.410																																																										
543	5.420																																																										
544	5.430																																																										
545	5.440																																																										
546	5.450																																																										
547	5.460																																																										
548	5.470																																																										
549	5.480																																																										
